<?xml version="1.0" standalone="no"?>
<!DOCTYPE svg PUBLIC "-//W3C//DTD SVG 20010904//EN"
 "http://www.w3.org/TR/2001/REC-SVG-20010904/DTD/svg10.dtd">
<svg version="1.0" xmlns="http://www.w3.org/2000/svg"
 width="256.000000pt" height="256.000000pt" viewBox="0 0 256.000000 256.000000"
 preserveAspectRatio="xMidYMid meet">

<g transform="translate(0.000000,256.000000) scale(0.100000,-0.100000)"
fill="#000000" stroke="none">
<path d="M1375 1859 c-321 -141 -331 -146 -373 -183 -66 -58 -94 -165 -72
-272 18 -89 65 -129 200 -173 173 -56 169 -45 47 -100 -139 -64 -173 -86 -208
-134 -24 -32 -28 -47 -24 -76 4 -27 3 -31 -4 -16 -11 23 -11 25 -16 -118 -3
-72 -1 -87 10 -83 77 29 558 245 585 261 83 53 111 111 113 234 1 152 -37 194
-228 251 -60 19 -113 36 -117 39 -4 3 46 30 110 59 202 90 233 130 240 310 2
61 1 112 -4 112 -5 0 -121 -50 -259 -111z m-395 -994 c-19 -20 -36 -31 -38
-25 -5 15 38 60 57 60 10 0 3 -12 -19 -35z"/>
<path d="M964 868 l-19 -23 23 19 c21 18 27 26 19 26 -2 0 -12 -10 -23 -22z"/>
</g>
</svg>
